<svg width="50" height="87" viewBox="0 0 50 87" fill="none" xmlns="http://www.w3.org/2000/svg">
<path d="M42.6777 7.32227C37.9558 2.60049 31.6777 0 25 0C18.3223 0 12.0442 2.60049 7.32227 7.32227C2.60049 12.0442 0 18.3223 0 25C0 31.6777 2.60049 37.9558 7.32227 42.6777C12.0442 47.3995 18.3223 50 25 50C31.6777 50 37.9558 47.3995 42.6777 42.6777C47.3995 37.9558 50 31.6777 50 25C50 18.3223 47.3995 12.0442 42.6777 7.32227ZM40.6061 40.6061C36.4375 44.7746 30.8952 47.0703 25 47.0703C19.1048 47.0703 13.5625 44.7746 9.39395 40.6061C5.22539 36.4375 2.92969 30.8952 2.92969 25C2.92969 19.1048 5.22539 13.5625 9.39395 9.39395C13.5625 5.22539 19.1048 2.92969 25 2.92969C30.8952 2.92969 36.4375 5.22539 40.6061 9.39395C44.7746 13.5625 47.0703 19.1048 47.0703 25C47.0703 30.8952 44.7746 36.4375 40.6061 40.6061Z" fill="white"/>
<path d="M25.0003 30.5562C22.873 30.5562 20.8186 31.4462 19.3637 32.998L16.3359 36.2275L18.4732 38.2314L21.501 35.0019C22.4043 34.0384 23.6797 33.4858 25.0003 33.4858C26.3209 33.4858 27.5964 34.0384 28.4997 35.0019L31.5275 38.2314L33.6647 36.2275L30.637 32.998C29.182 31.4462 27.1275 30.5562 25.0003 30.5562Z" fill="white"/>
<path d="M18.0724 25.9137V20.8145C18.4166 21.0984 18.7354 21.418 19.0234 21.7713L20.1157 23.1107L22.3862 21.2593L21.2939 19.9198C19.6708 17.9293 17.3709 16.6782 14.818 16.3971L11.5453 16.0366L11.2246 18.9486C11.2246 18.9486 14.9306 19.3676 15.1428 19.4115V25.9138H18.0724V25.9137Z" fill="white"/>
<path d="M35.1821 16.397C32.629 16.678 30.3292 17.9291 28.7061 19.9197L27.6138 21.2592L29.8843 23.1106L30.9766 21.7712C31.2646 21.4179 31.5834 21.0983 31.9276 20.8144V25.9137H34.8573V19.4115C35.0695 19.3676 38.7755 18.9486 38.7755 18.9486L38.4547 16.0366L35.1821 16.397Z" fill="white"/>
<path d="M8.90137 68.1504H12.5312C14.2363 68.1504 15.4697 68.4053 16.2314 68.915C16.9932 69.4248 17.374 70.2305 17.374 71.332C17.374 72.0938 17.1602 72.7236 16.7324 73.2217C16.3105 73.7139 15.6924 74.0332 14.8779 74.1797V74.2676C16.8291 74.6016 17.8047 75.627 17.8047 77.3438C17.8047 78.4922 17.415 79.3887 16.6357 80.0332C15.8623 80.6777 14.7783 81 13.3838 81H8.90137V68.1504ZM10.3955 73.6523H12.8564C13.9111 73.6523 14.6699 73.4883 15.1328 73.1602C15.5957 72.8262 15.8271 72.2666 15.8271 71.4814C15.8271 70.7607 15.5693 70.2422 15.0537 69.9258C14.5381 69.6035 13.7178 69.4424 12.5928 69.4424H10.3955V73.6523ZM10.3955 74.918V79.7256H13.0762C14.1133 79.7256 14.8926 79.5264 15.4141 79.1279C15.9414 78.7236 16.2051 78.0938 16.2051 77.2383C16.2051 76.4414 15.9355 75.8555 15.3965 75.4805C14.8633 75.1055 14.0488 74.918 12.9531 74.918H10.3955ZM26.2773 81L25.9873 79.6289H25.917C25.4365 80.2324 24.9561 80.6426 24.4756 80.8594C24.001 81.0703 23.4062 81.1758 22.6914 81.1758C21.7363 81.1758 20.9863 80.9297 20.4414 80.4375C19.9023 79.9453 19.6328 79.2451 19.6328 78.3369C19.6328 76.3916 21.1885 75.3721 24.2998 75.2783L25.9346 75.2256V74.6279C25.9346 73.8721 25.7705 73.3154 25.4424 72.958C25.1201 72.5947 24.6016 72.4131 23.8867 72.4131C23.084 72.4131 22.1758 72.6592 21.1621 73.1514L20.7139 72.0352C21.1885 71.7773 21.707 71.5752 22.2695 71.4287C22.8379 71.2822 23.4062 71.209 23.9746 71.209C25.123 71.209 25.9727 71.4639 26.5234 71.9736C27.0801 72.4834 27.3584 73.3008 27.3584 74.4258V81H26.2773ZM22.9814 79.9717C23.8896 79.9717 24.6016 79.7227 25.1172 79.2246C25.6387 78.7266 25.8994 78.0293 25.8994 77.1328V76.2627L24.4404 76.3242C23.2803 76.3652 22.4424 76.5469 21.9268 76.8691C21.417 77.1855 21.1621 77.6807 21.1621 78.3545C21.1621 78.8818 21.3203 79.2832 21.6367 79.5586C21.959 79.834 22.4072 79.9717 22.9814 79.9717ZM36.9297 79.708H36.8506C36.1768 80.6865 35.1689 81.1758 33.8271 81.1758C32.5674 81.1758 31.5859 80.7451 30.8828 79.8838C30.1855 79.0225 29.8369 77.7979 29.8369 76.21C29.8369 74.6221 30.1885 73.3887 30.8916 72.5098C31.5947 71.6309 32.5732 71.1914 33.8271 71.1914C35.1338 71.1914 36.1357 71.666 36.833 72.6152H36.9473L36.8857 71.9209L36.8506 71.2441V67.3242H38.3096V81H37.123L36.9297 79.708ZM34.0117 79.9541C35.0078 79.9541 35.7285 79.6846 36.1738 79.1455C36.625 78.6006 36.8506 77.7246 36.8506 76.5176V76.21C36.8506 74.8447 36.6221 73.8721 36.165 73.292C35.7139 72.7061 34.9902 72.4131 33.9941 72.4131C33.1387 72.4131 32.4824 72.7471 32.0254 73.415C31.5742 74.0771 31.3486 75.0146 31.3486 76.2275C31.3486 77.458 31.5742 78.3867 32.0254 79.0137C32.4766 79.6406 33.1387 79.9541 34.0117 79.9541Z" fill="white" fill-opacity="0.7"/>
</svg>
