<svg width="50" height="50" viewBox="0 0 50 50" fill="none" xmlns="http://www.w3.org/2000/svg">
<path d="M50 25C50 38.8125 38.7969 50 25 50C11.1875 50 0 38.8125 0 25C0 11.2031 11.1875 0 25 0C38.7969 0 50 11.2031 50 25Z" fill="#E24B4B"/>
<path d="M50 25C50 38.8125 38.7969 50 25 50C17.125 50 10.0938 46.3594 5.53125 40.6719C9.8125 44.1094 15.2344 46.1562 21.1562 46.1562C34.9531 46.1562 46.1562 34.9688 46.1562 21.1562C46.1562 15.2344 44.1094 9.8125 40.6562 5.53125C46.3594 10.1094 50 17.125 50 25Z" fill="#D03F3F"/>
<path d="M19.8707 20.0734C19.555 20.0734 19.2566 19.9203 19.0738 19.6609C17.3441 17.2203 14.9832 15.664 11.641 14.7672C11.1207 14.6265 10.8113 14.0906 10.9519 13.5703C11.0925 13.0484 11.6253 12.7437 12.1488 12.8812C15.3785 13.75 17.8941 15.239 19.7941 17.4203L21.1644 15.3015C21.455 14.8484 22.0628 14.7187 22.5128 15.0109C22.966 15.3047 23.0957 15.9078 22.8035 16.3609L20.691 19.6265C20.516 19.8984 20.216 20.0656 19.8925 20.0734C19.8832 20.0734 19.8753 20.0734 19.8707 20.0734Z" fill="#3E4347"/>
<path d="M15.8409 28.9548C18.0207 28.9548 19.7878 26.9456 19.7878 24.4672C19.7878 21.9889 18.0207 19.9797 15.8409 19.9797C13.6611 19.9797 11.894 21.9889 11.894 24.4672C11.894 26.9456 13.6611 28.9548 15.8409 28.9548Z" fill="#3E4347"/>
<path d="M30.13 20.0734C30.1221 20.0734 30.1159 20.0734 30.1081 20.0734C29.7846 20.0672 29.4862 19.8984 29.3081 19.6266L27.1971 16.3609C26.905 15.9078 27.0346 15.3031 27.4878 15.0109C27.9393 14.7172 28.5456 14.8484 28.8378 15.3016L30.205 17.4188C32.1065 15.2391 34.6206 13.7484 37.8518 12.8813C38.3753 12.7391 38.9081 13.0484 39.0487 13.5703C39.1893 14.0906 38.88 14.6266 38.3596 14.7672C35.0175 15.6656 32.6565 17.2203 30.9253 19.6625C30.744 19.9203 30.4456 20.0734 30.13 20.0734Z" fill="#3E4347"/>
<path d="M34.1598 28.9548C36.3396 28.9548 38.1066 26.9456 38.1066 24.4672C38.1066 21.9889 36.3396 19.9797 34.1598 19.9797C31.98 19.9797 30.2129 21.9889 30.2129 24.4672C30.2129 26.9456 31.98 28.9548 34.1598 28.9548Z" fill="#3E4347"/>
<path d="M32.1892 39.2016C30.3471 37.275 27.7127 36.1719 24.958 36.1719C22.2033 36.1719 19.5689 37.2766 17.7267 39.2016C17.1283 39.8266 16.1377 39.8453 15.5174 39.25C14.8939 38.6531 14.8721 37.6641 15.4689 37.0406C17.8986 34.5016 21.3564 33.0469 24.958 33.0469C28.5611 33.0469 32.0189 34.5031 34.447 37.0406C35.0439 37.6641 35.022 38.6531 34.3986 39.25C33.7783 39.8453 32.7877 39.8266 32.1892 39.2016Z" fill="#3E4347"/>
<path d="M36.3545 23.85C36.017 23.9859 35.5873 23.7031 35.3842 23.2156C35.1936 22.7265 35.3014 22.2234 35.6389 22.0875C35.9889 21.95 36.4201 22.2328 36.6092 22.7218C36.8123 23.2078 36.692 23.714 36.3545 23.85Z" fill="#5A5F63"/>
<path d="M17.8733 23.85C17.5358 23.9859 17.1061 23.7031 16.903 23.2156C16.7139 22.7265 16.8202 22.2234 17.1593 22.0875C17.5092 21.95 17.9405 22.2328 18.1296 22.7218C18.3311 23.2078 18.2108 23.714 17.8733 23.85Z" fill="#5A5F63"/>
</svg>
