<svg width="50" height="87" viewBox="0 0 50 87" fill="none" xmlns="http://www.w3.org/2000/svg">
<path d="M8.92676 68.1504H12.7412C14.5107 68.1504 15.7881 68.4082 16.5732 68.9238C17.3643 69.4395 17.7598 70.2539 17.7598 71.3672C17.7598 72.1172 17.5664 72.7412 17.1797 73.2393C16.793 73.7373 16.2363 74.0508 15.5098 74.1797V74.2676C16.4121 74.4375 17.0742 74.7744 17.4961 75.2783C17.9238 75.7764 18.1377 76.4531 18.1377 77.3086C18.1377 78.4629 17.7334 79.3682 16.9248 80.0244C16.1221 80.6748 15.0029 81 13.5674 81H8.92676V68.1504ZM11.0273 73.459H13.0488C13.9277 73.459 14.5693 73.3213 14.9736 73.0459C15.3779 72.7646 15.5801 72.29 15.5801 71.6221C15.5801 71.0186 15.3604 70.582 14.9209 70.3125C14.4873 70.043 13.7959 69.9082 12.8467 69.9082H11.0273V73.459ZM11.0273 75.1641V79.2334H13.2598C14.1387 79.2334 14.8008 79.0664 15.2461 78.7324C15.6973 78.3926 15.9229 77.8594 15.9229 77.1328C15.9229 76.4648 15.6943 75.9697 15.2373 75.6475C14.7803 75.3252 14.0859 75.1641 13.1543 75.1641H11.0273ZM26.6719 81L26.2588 79.6465H26.1885C25.7197 80.2383 25.248 80.6426 24.7734 80.8594C24.2988 81.0703 23.6895 81.1758 22.9453 81.1758C21.9902 81.1758 21.2432 80.918 20.7041 80.4023C20.1709 79.8867 19.9043 79.1572 19.9043 78.2139C19.9043 77.2119 20.2764 76.4561 21.0205 75.9463C21.7646 75.4365 22.8984 75.1582 24.4219 75.1113L26.1006 75.0586V74.54C26.1006 73.9189 25.9541 73.4561 25.6611 73.1514C25.374 72.8408 24.9258 72.6855 24.3164 72.6855C23.8184 72.6855 23.3408 72.7588 22.8838 72.9053C22.4268 73.0518 21.9873 73.2246 21.5654 73.4238L20.8975 71.9473C21.4248 71.6719 22.002 71.4639 22.6289 71.3232C23.2559 71.1768 23.8477 71.1035 24.4043 71.1035C25.6406 71.1035 26.5723 71.373 27.1992 71.9121C27.832 72.4512 28.1484 73.2979 28.1484 74.4521V81H26.6719ZM23.5957 79.5938C24.3457 79.5938 24.9463 79.3857 25.3975 78.9697C25.8545 78.5479 26.083 77.959 26.083 77.2031V76.3594L24.835 76.4121C23.8623 76.4473 23.1533 76.6113 22.708 76.9043C22.2686 77.1914 22.0488 77.6338 22.0488 78.2314C22.0488 78.665 22.1777 79.002 22.4355 79.2422C22.6934 79.4766 23.0801 79.5938 23.5957 79.5938ZM34.3096 81.1758C33.0967 81.1758 32.1504 80.7363 31.4707 79.8574C30.791 78.9785 30.4512 77.7451 30.4512 76.1572C30.4512 74.5635 30.7939 73.3242 31.4795 72.4395C32.1709 71.5488 33.126 71.1035 34.3447 71.1035C35.6221 71.1035 36.5947 71.5752 37.2627 72.5186H37.3682C37.2686 71.8213 37.2188 71.2705 37.2188 70.8662V67.3242H39.293V81H37.6758L37.3154 79.7256H37.2188C36.5566 80.6924 35.5869 81.1758 34.3096 81.1758ZM34.8633 79.5059C35.7129 79.5059 36.3311 79.2686 36.7178 78.7939C37.1045 78.3135 37.3037 77.5371 37.3154 76.4648V76.1748C37.3154 74.9502 37.1162 74.0801 36.7178 73.5645C36.3193 73.0488 35.6953 72.791 34.8457 72.791C34.1191 72.791 33.5596 73.0869 33.167 73.6787C32.7744 74.2646 32.5781 75.1025 32.5781 76.1924C32.5781 77.2705 32.7686 78.0938 33.1494 78.6621C33.5303 79.2246 34.1016 79.5059 34.8633 79.5059Z" fill="white"/>
<path d="M50 25C50 38.8125 38.7969 50 25 50C11.1875 50 0 38.8125 0 25C0 11.2031 11.1875 0 25 0C38.7969 0 50 11.2031 50 25Z" fill="#E24B4B"/>
<path d="M50 25C50 38.8125 38.7969 50 25 50C17.125 50 10.0938 46.3594 5.53125 40.6719C9.8125 44.1094 15.2344 46.1562 21.1562 46.1562C34.9531 46.1562 46.1562 34.9688 46.1562 21.1562C46.1562 15.2344 44.1094 9.8125 40.6562 5.53125C46.3594 10.1094 50 17.125 50 25Z" fill="#D03F3F"/>
<path d="M19.8707 20.0734C19.555 20.0734 19.2566 19.9203 19.0738 19.6609C17.3441 17.2203 14.9832 15.664 11.641 14.7672C11.1207 14.6265 10.8113 14.0906 10.9519 13.5703C11.0925 13.0484 11.6253 12.7437 12.1488 12.8812C15.3785 13.75 17.8941 15.239 19.7941 17.4203L21.1644 15.3015C21.455 14.8484 22.0628 14.7187 22.5128 15.0109C22.966 15.3047 23.0957 15.9078 22.8035 16.3609L20.691 19.6265C20.516 19.8984 20.216 20.0656 19.8925 20.0734C19.8832 20.0734 19.8753 20.0734 19.8707 20.0734Z" fill="#3E4347"/>
<path d="M15.8409 28.9548C18.0207 28.9548 19.7878 26.9456 19.7878 24.4672C19.7878 21.9889 18.0207 19.9797 15.8409 19.9797C13.6611 19.9797 11.894 21.9889 11.894 24.4672C11.894 26.9456 13.6611 28.9548 15.8409 28.9548Z" fill="#3E4347"/>
<path d="M30.13 20.0734C30.1221 20.0734 30.1159 20.0734 30.1081 20.0734C29.7846 20.0672 29.4862 19.8984 29.3081 19.6266L27.1971 16.3609C26.905 15.9078 27.0346 15.3031 27.4878 15.0109C27.9393 14.7172 28.5456 14.8484 28.8378 15.3016L30.205 17.4188C32.1065 15.2391 34.6206 13.7484 37.8518 12.8813C38.3753 12.7391 38.9081 13.0484 39.0487 13.5703C39.1893 14.0906 38.88 14.6266 38.3596 14.7672C35.0175 15.6656 32.6565 17.2203 30.9253 19.6625C30.744 19.9203 30.4456 20.0734 30.13 20.0734Z" fill="#3E4347"/>
<path d="M34.1598 28.9548C36.3396 28.9548 38.1066 26.9456 38.1066 24.4672C38.1066 21.9889 36.3396 19.9797 34.1598 19.9797C31.98 19.9797 30.2129 21.9889 30.2129 24.4672C30.2129 26.9456 31.98 28.9548 34.1598 28.9548Z" fill="#3E4347"/>
<path d="M32.1892 39.2016C30.3471 37.275 27.7127 36.1719 24.958 36.1719C22.2033 36.1719 19.5689 37.2766 17.7267 39.2016C17.1283 39.8266 16.1377 39.8453 15.5174 39.25C14.8939 38.6531 14.8721 37.6641 15.4689 37.0406C17.8986 34.5016 21.3564 33.0469 24.958 33.0469C28.5611 33.0469 32.0189 34.5031 34.447 37.0406C35.0439 37.6641 35.022 38.6531 34.3986 39.25C33.7783 39.8453 32.7877 39.8266 32.1892 39.2016Z" fill="#3E4347"/>
<path d="M36.3545 23.85C36.017 23.9859 35.5873 23.7031 35.3842 23.2156C35.1936 22.7265 35.3014 22.2234 35.6389 22.0875C35.9889 21.95 36.4201 22.2328 36.6092 22.7218C36.8123 23.2078 36.692 23.714 36.3545 23.85Z" fill="#5A5F63"/>
<path d="M17.8733 23.85C17.5358 23.9859 17.1061 23.7031 16.903 23.2156C16.7139 22.7265 16.8202 22.2234 17.1593 22.0875C17.5092 21.95 17.9405 22.2328 18.1296 22.7218C18.3311 23.2078 18.2108 23.714 17.8733 23.85Z" fill="#5A5F63"/>
</svg>
