<svg width="57" height="87" viewBox="0 0 57 87" fill="none" xmlns="http://www.w3.org/2000/svg">
<path d="M12.3105 81H10.2012V75.208H4.27734V81H2.17676V68.1504H4.27734V73.4062H10.2012V68.1504H12.3105V81ZM21.5566 81L21.1436 79.6465H21.0732C20.6045 80.2383 20.1328 80.6426 19.6582 80.8594C19.1836 81.0703 18.5742 81.1758 17.8301 81.1758C16.875 81.1758 16.1279 80.918 15.5889 80.4023C15.0557 79.8867 14.7891 79.1572 14.7891 78.2139C14.7891 77.2119 15.1611 76.4561 15.9053 75.9463C16.6494 75.4365 17.7832 75.1582 19.3066 75.1113L20.9854 75.0586V74.54C20.9854 73.9189 20.8389 73.4561 20.5459 73.1514C20.2588 72.8408 19.8105 72.6855 19.2012 72.6855C18.7031 72.6855 18.2256 72.7588 17.7686 72.9053C17.3115 73.0518 16.8721 73.2246 16.4502 73.4238L15.7822 71.9473C16.3096 71.6719 16.8867 71.4639 17.5137 71.3232C18.1406 71.1768 18.7324 71.1035 19.2891 71.1035C20.5254 71.1035 21.457 71.373 22.084 71.9121C22.7168 72.4512 23.0332 73.2979 23.0332 74.4521V81H21.5566ZM18.4805 79.5938C19.2305 79.5938 19.8311 79.3857 20.2822 78.9697C20.7393 78.5479 20.9678 77.959 20.9678 77.2031V76.3594L19.7197 76.4121C18.7471 76.4473 18.0381 76.6113 17.5928 76.9043C17.1533 77.1914 16.9336 77.6338 16.9336 78.2314C16.9336 78.665 17.0625 79.002 17.3203 79.2422C17.5781 79.4766 17.9648 79.5938 18.4805 79.5938ZM30.8467 81.1758C29.6162 81.1758 28.6611 80.7334 27.9814 79.8486H27.8584C27.9404 80.6689 27.9814 81.167 27.9814 81.3428V85.3242H25.916V71.2793H27.5859C27.6328 71.4609 27.7295 71.8945 27.876 72.5801H27.9814C28.626 71.5957 29.5928 71.1035 30.8818 71.1035C32.0947 71.1035 33.0381 71.543 33.7119 72.4219C34.3916 73.3008 34.7314 74.5342 34.7314 76.1221C34.7314 77.71 34.3857 78.9492 33.6943 79.8398C33.0088 80.7305 32.0596 81.1758 30.8467 81.1758ZM30.3457 72.791C29.5254 72.791 28.9248 73.0312 28.5439 73.5117C28.1689 73.9922 27.9814 74.7598 27.9814 75.8145V76.1221C27.9814 77.3057 28.1689 78.1641 28.5439 78.6973C28.9189 79.2246 29.5312 79.4883 30.3809 79.4883C31.0957 79.4883 31.6465 79.1953 32.0332 78.6094C32.4199 78.0234 32.6133 77.1885 32.6133 76.1045C32.6133 75.0146 32.4199 74.1914 32.0332 73.6348C31.6523 73.0723 31.0898 72.791 30.3457 72.791ZM42.0615 81.1758C40.8311 81.1758 39.876 80.7334 39.1963 79.8486H39.0732C39.1553 80.6689 39.1963 81.167 39.1963 81.3428V85.3242H37.1309V71.2793H38.8008C38.8477 71.4609 38.9443 71.8945 39.0908 72.5801H39.1963C39.8408 71.5957 40.8076 71.1035 42.0967 71.1035C43.3096 71.1035 44.2529 71.543 44.9268 72.4219C45.6064 73.3008 45.9463 74.5342 45.9463 76.1221C45.9463 77.71 45.6006 78.9492 44.9092 79.8398C44.2236 80.7305 43.2744 81.1758 42.0615 81.1758ZM41.5605 72.791C40.7402 72.791 40.1396 73.0312 39.7588 73.5117C39.3838 73.9922 39.1963 74.7598 39.1963 75.8145V76.1221C39.1963 77.3057 39.3838 78.1641 39.7588 78.6973C40.1338 79.2246 40.7461 79.4883 41.5957 79.4883C42.3105 79.4883 42.8613 79.1953 43.248 78.6094C43.6348 78.0234 43.8281 77.1885 43.8281 76.1045C43.8281 75.0146 43.6348 74.1914 43.248 73.6348C42.8672 73.0723 42.3047 72.791 41.5605 72.791ZM46.8691 71.2793H49.1191L51.0967 76.79C51.3955 77.5752 51.5947 78.3135 51.6943 79.0049H51.7646C51.8174 78.6826 51.9141 78.293 52.0547 77.8359C52.1953 77.373 52.9395 75.1875 54.2871 71.2793H56.5195L52.3623 82.292C51.6064 84.3135 50.3467 85.3242 48.583 85.3242C48.126 85.3242 47.6807 85.2744 47.2471 85.1748V83.54C47.5576 83.6104 47.9121 83.6455 48.3105 83.6455C49.3066 83.6455 50.0068 83.0684 50.4111 81.9141L50.7715 81L46.8691 71.2793Z" fill="white"/>
<path d="M3 25C3 38.8071 14.1929 50 28 50L31.2854 25L28 0C14.1929 0 3 11.1929 3 25Z" fill="#FFF083"/>
<path d="M28 0V50C41.8071 50 53 38.8071 53 25C53 11.1929 41.8071 0 28 0Z" fill="#FFDA2D"/>
<path d="M26.3518 20.2676H23.4221V17.9094C23.4221 16.6589 22.4048 15.6416 21.1544 15.6416C19.904 15.6416 18.8867 16.6589 18.8867 17.9094V20.2676H15.957V17.9094C15.957 15.0435 18.2886 12.7119 21.1544 12.7119C24.0202 12.7119 26.3518 15.0435 26.3518 17.9094V20.2676Z" fill="#FFDA2D"/>
<path d="M40.0432 20.2676H37.1135V17.9094C37.1135 16.6589 36.0962 15.6416 34.8458 15.6416C33.5954 15.6416 32.5781 16.6589 32.5781 17.9094V20.2676H29.6484V17.9094C29.6484 15.0435 31.98 12.7119 34.8458 12.7119C37.7116 12.7119 40.0432 15.0435 40.0432 17.9094V20.2676Z" fill="#FFB64C"/>
<path d="M12.2319 24.8286V26.2935C12.2319 27.5576 12.3824 28.787 12.6647 29.9658L28 33.3516L31.2854 27.9739L28 24.8286H12.2319Z" fill="#E7FFFF"/>
<path d="M43.7681 26.2935V24.8286H28V33.3516L43.3353 29.9658C43.6176 28.7871 43.7681 27.5576 43.7681 26.2935Z" fill="#DAF2FE"/>
<path d="M12.665 29.9658C14.3243 36.8949 20.5698 42.0614 28.0003 42.0614L31.2856 35.4767L28.0003 29.9658H12.665Z" fill="#FFDA2D"/>
<path d="M43.3353 29.9658H28V42.0614C35.4305 42.0614 41.676 36.8949 43.3353 29.9658Z" fill="#FFB64C"/>
</svg>
