<svg width="50" height="50" viewBox="0 0 50 50" fill="none" xmlns="http://www.w3.org/2000/svg">
<path d="M42.6776 7.32236C37.9559 2.60049 31.6777 0 25 0C18.3223 0 12.0441 2.60049 7.32236 7.32236C2.60039 12.0441 0 18.3223 0 25C0 31.6777 2.60039 37.9559 7.32236 42.6776C12.0441 47.3995 18.3223 50 25 50C31.6777 50 37.9559 47.3995 42.6776 42.6776C47.3996 37.9559 50 31.6777 50 25C50 18.3223 47.3996 12.0441 42.6776 7.32236ZM25 47.0238C12.8561 47.0238 2.97617 37.1439 2.97617 25C2.97617 12.8561 12.8561 2.97617 25 2.97617C37.1439 2.97617 47.0238 12.8561 47.0238 25C47.0238 37.1439 37.1439 47.0238 25 47.0238Z" fill="white"/>
<path d="M19.592 18.398C17.1552 15.961 13.1901 15.9612 10.7532 18.398C10.1721 18.9791 10.1721 19.9213 10.7532 20.5025C11.3345 21.0835 12.2768 21.0835 12.8578 20.5025C14.1344 19.226 16.2114 19.2261 17.4877 20.5025C17.7784 20.7931 18.1591 20.9384 18.5399 20.9384C18.9206 20.9384 19.3016 20.7931 19.592 20.5025C20.1732 19.9213 20.1732 18.9791 19.592 18.398Z" fill="white"/>
<path d="M39.2468 18.398C36.81 15.9612 32.8449 15.961 30.408 18.398C29.8269 18.9791 29.8269 19.9213 30.408 20.5025C30.9893 21.0835 31.9316 21.0835 32.5126 20.5025C33.789 19.226 35.866 19.2259 37.1425 20.5025C37.4331 20.7931 37.8139 20.9384 38.1947 20.9384C38.5754 20.9384 38.9564 20.7931 39.2468 20.5025C39.828 19.9213 39.828 18.9791 39.2468 18.398Z" fill="white"/>
<path d="M38.1943 26.0913H11.8055C10.9836 26.0913 10.3174 26.7576 10.3174 27.5794C10.3174 35.6753 16.904 42.2619 24.9999 42.2619C33.0958 42.2619 39.6824 35.6753 39.6824 27.5794C39.6824 26.7575 39.0162 26.0913 38.1943 26.0913ZM24.9999 39.2857C19.0489 39.2857 14.1208 34.8226 13.3877 29.0675H36.6122C35.879 34.8226 30.9509 39.2857 24.9999 39.2857Z" fill="white"/>
</svg>
