<svg width="57" height="87" viewBox="0 0 57 87" fill="none" xmlns="http://www.w3.org/2000/svg">
<path d="M12.3105 81H10.2012V75.208H4.27734V81H2.17676V68.1504H4.27734V73.4062H10.2012V68.1504H12.3105V81ZM21.5566 81L21.1436 79.6465H21.0732C20.6045 80.2383 20.1328 80.6426 19.6582 80.8594C19.1836 81.0703 18.5742 81.1758 17.8301 81.1758C16.875 81.1758 16.1279 80.918 15.5889 80.4023C15.0557 79.8867 14.7891 79.1572 14.7891 78.2139C14.7891 77.2119 15.1611 76.4561 15.9053 75.9463C16.6494 75.4365 17.7832 75.1582 19.3066 75.1113L20.9854 75.0586V74.54C20.9854 73.9189 20.8389 73.4561 20.5459 73.1514C20.2588 72.8408 19.8105 72.6855 19.2012 72.6855C18.7031 72.6855 18.2256 72.7588 17.7686 72.9053C17.3115 73.0518 16.8721 73.2246 16.4502 73.4238L15.7822 71.9473C16.3096 71.6719 16.8867 71.4639 17.5137 71.3232C18.1406 71.1768 18.7324 71.1035 19.2891 71.1035C20.5254 71.1035 21.457 71.373 22.084 71.9121C22.7168 72.4512 23.0332 73.2979 23.0332 74.4521V81H21.5566ZM18.4805 79.5938C19.2305 79.5938 19.8311 79.3857 20.2822 78.9697C20.7393 78.5479 20.9678 77.959 20.9678 77.2031V76.3594L19.7197 76.4121C18.7471 76.4473 18.0381 76.6113 17.5928 76.9043C17.1533 77.1914 16.9336 77.6338 16.9336 78.2314C16.9336 78.665 17.0625 79.002 17.3203 79.2422C17.5781 79.4766 17.9648 79.5938 18.4805 79.5938ZM30.8467 81.1758C29.6162 81.1758 28.6611 80.7334 27.9814 79.8486H27.8584C27.9404 80.6689 27.9814 81.167 27.9814 81.3428V85.3242H25.916V71.2793H27.5859C27.6328 71.4609 27.7295 71.8945 27.876 72.5801H27.9814C28.626 71.5957 29.5928 71.1035 30.8818 71.1035C32.0947 71.1035 33.0381 71.543 33.7119 72.4219C34.3916 73.3008 34.7314 74.5342 34.7314 76.1221C34.7314 77.71 34.3857 78.9492 33.6943 79.8398C33.0088 80.7305 32.0596 81.1758 30.8467 81.1758ZM30.3457 72.791C29.5254 72.791 28.9248 73.0312 28.5439 73.5117C28.1689 73.9922 27.9814 74.7598 27.9814 75.8145V76.1221C27.9814 77.3057 28.1689 78.1641 28.5439 78.6973C28.9189 79.2246 29.5312 79.4883 30.3809 79.4883C31.0957 79.4883 31.6465 79.1953 32.0332 78.6094C32.4199 78.0234 32.6133 77.1885 32.6133 76.1045C32.6133 75.0146 32.4199 74.1914 32.0332 73.6348C31.6523 73.0723 31.0898 72.791 30.3457 72.791ZM42.0615 81.1758C40.8311 81.1758 39.876 80.7334 39.1963 79.8486H39.0732C39.1553 80.6689 39.1963 81.167 39.1963 81.3428V85.3242H37.1309V71.2793H38.8008C38.8477 71.4609 38.9443 71.8945 39.0908 72.5801H39.1963C39.8408 71.5957 40.8076 71.1035 42.0967 71.1035C43.3096 71.1035 44.2529 71.543 44.9268 72.4219C45.6064 73.3008 45.9463 74.5342 45.9463 76.1221C45.9463 77.71 45.6006 78.9492 44.9092 79.8398C44.2236 80.7305 43.2744 81.1758 42.0615 81.1758ZM41.5605 72.791C40.7402 72.791 40.1396 73.0312 39.7588 73.5117C39.3838 73.9922 39.1963 74.7598 39.1963 75.8145V76.1221C39.1963 77.3057 39.3838 78.1641 39.7588 78.6973C40.1338 79.2246 40.7461 79.4883 41.5957 79.4883C42.3105 79.4883 42.8613 79.1953 43.248 78.6094C43.6348 78.0234 43.8281 77.1885 43.8281 76.1045C43.8281 75.0146 43.6348 74.1914 43.248 73.6348C42.8672 73.0723 42.3047 72.791 41.5605 72.791ZM46.8691 71.2793H49.1191L51.0967 76.79C51.3955 77.5752 51.5947 78.3135 51.6943 79.0049H51.7646C51.8174 78.6826 51.9141 78.293 52.0547 77.8359C52.1953 77.373 52.9395 75.1875 54.2871 71.2793H56.5195L52.3623 82.292C51.6064 84.3135 50.3467 85.3242 48.583 85.3242C48.126 85.3242 47.6807 85.2744 47.2471 85.1748V83.54C47.5576 83.6104 47.9121 83.6455 48.3105 83.6455C49.3066 83.6455 50.0068 83.0684 50.4111 81.9141L50.7715 81L46.8691 71.2793Z" fill="white" fill-opacity="0.7"/>
<path d="M45.6776 7.32236C40.9559 2.60049 34.6777 0 28 0C21.3223 0 15.0441 2.60049 10.3224 7.32236C5.60039 12.0441 3 18.3223 3 25C3 31.6777 5.60039 37.9559 10.3224 42.6776C15.0441 47.3995 21.3223 50 28 50C34.6777 50 40.9559 47.3995 45.6776 42.6776C50.3996 37.9559 53 31.6777 53 25C53 18.3223 50.3996 12.0441 45.6776 7.32236ZM28 47.0238C15.8561 47.0238 5.97617 37.1439 5.97617 25C5.97617 12.8561 15.8561 2.97617 28 2.97617C40.1439 2.97617 50.0238 12.8561 50.0238 25C50.0238 37.1439 40.1439 47.0238 28 47.0238Z" fill="white"/>
<path d="M22.592 18.398C20.1552 15.961 16.1901 15.9612 13.7532 18.398C13.1721 18.9791 13.1721 19.9213 13.7532 20.5025C14.3345 21.0835 15.2768 21.0835 15.8578 20.5025C17.1344 19.226 19.2114 19.2261 20.4877 20.5025C20.7784 20.7931 21.1591 20.9384 21.5399 20.9384C21.9206 20.9384 22.3016 20.7931 22.592 20.5025C23.1732 19.9213 23.1732 18.9791 22.592 18.398Z" fill="white"/>
<path d="M42.2468 18.398C39.81 15.9612 35.8449 15.961 33.408 18.398C32.8269 18.9791 32.8269 19.9213 33.408 20.5025C33.9893 21.0835 34.9316 21.0835 35.5126 20.5025C36.789 19.226 38.866 19.2259 40.1425 20.5025C40.4331 20.7931 40.8139 20.9384 41.1947 20.9384C41.5754 20.9384 41.9564 20.7931 42.2468 20.5025C42.828 19.9213 42.828 18.9791 42.2468 18.398Z" fill="white"/>
<path d="M41.1943 26.0913H14.8055C13.9836 26.0913 13.3174 26.7576 13.3174 27.5794C13.3174 35.6753 19.904 42.2619 27.9999 42.2619C36.0958 42.2619 42.6824 35.6753 42.6824 27.5794C42.6824 26.7575 42.0162 26.0913 41.1943 26.0913ZM27.9999 39.2857C22.0489 39.2857 17.1208 34.8226 16.3877 29.0675H39.6122C38.879 34.8226 33.9509 39.2857 27.9999 39.2857Z" fill="white"/>
</svg>
