<svg width="410" height="261" viewBox="0 0 410 261" fill="none" xmlns="http://www.w3.org/2000/svg">
<path d="M102.77 173.836C102.196 173.835 101.731 173.52 101.732 173.133C101.732 172.747 102.199 172.435 102.774 172.435C103.349 172.436 103.814 172.751 103.813 173.138C103.812 173.525 103.345 173.837 102.77 173.836ZM102.777 171.205C103.184 171.206 103.514 171.41 103.513 171.661C103.513 171.912 103.182 172.114 102.775 172.113C102.367 172.111 102.037 171.907 102.038 171.657C102.039 171.406 102.369 171.203 102.777 171.205ZM102.778 170.65C102.019 170.649 101.401 171.525 101.399 172.607C101.396 173.691 102.009 174.57 102.769 174.572C103.528 174.573 104.145 173.698 104.148 172.614C104.151 171.531 103.537 170.653 102.778 170.65Z" fill="#4A6CBD"/>
<path d="M99.6574 174.979C99.3688 175.602 99.2176 176.279 99.2158 176.966L99.1807 191.319C99.1785 192.185 99.8861 192.89 100.761 192.892L108.962 192.912C109.837 192.914 110.548 192.214 110.55 191.347L110.585 176.993C110.587 176.308 110.439 175.629 110.153 175.005L99.6574 174.979Z" fill="#663199"/>
<path d="M99.6574 174.979C99.3688 175.602 99.2176 176.279 99.2158 176.966L99.1807 191.319C99.1785 192.185 99.8861 192.89 100.761 192.892L108.962 192.912C109.837 192.914 110.548 192.214 110.55 191.347L110.585 176.993C110.587 176.308 110.439 175.629 110.153 175.005L99.6574 174.979Z" fill="#663199"/>
<path d="M110.586 176.993L110.551 191.347C110.548 192.214 109.837 192.915 108.962 192.912L100.762 192.892C99.8856 192.891 99.1792 192.185 99.1812 191.319L99.2165 176.966C99.2182 176.281 99.3689 175.604 99.6574 174.979L110.153 175.006C110.438 175.631 110.587 176.309 110.586 176.993Z" fill="#F35F52"/>
<path d="M101.355 191.324L101.39 176.972C101.392 176.285 101.543 175.608 101.832 174.985L99.6574 174.979C99.3688 175.602 99.2176 176.279 99.2158 176.966L99.1807 191.319C99.1785 192.185 99.8861 192.89 100.761 192.892L102.935 192.897C102.06 192.895 101.353 192.191 101.355 191.324Z" fill="#F47374"/>
<path d="M110.586 176.993L110.551 191.347C110.549 192.214 109.837 192.915 108.963 192.912L105.61 192.905C106.493 192.907 107.213 192.205 107.215 191.339L107.25 176.985C107.252 176.301 107.1 175.622 106.813 174.998L110.153 175.006C110.438 175.631 110.588 176.309 110.586 176.993Z" fill="#B14A40"/>
<path d="M110.153 175.005L99.6562 174.979C99.6574 174.52 100.034 174.15 100.497 174.151L109.317 174.172C109.78 174.174 110.154 174.546 110.153 175.005Z" fill="#1B375A"/>
<path d="M110.558 188.513L99.1885 188.485L99.1841 190.268L110.554 190.297L110.558 188.513Z" fill="#375491"/>
<path d="M89.3267 170.358H90.5808C90.3755 170.218 90.1189 170.134 89.8397 170.134H58.4257C56.7821 170.134 55.4497 171.316 55.4497 172.774V174.45C55.4497 175.908 56.7821 177.09 58.4257 177.09L89.4883 177.082L89.3267 170.358Z" fill="#82A9DE"/>
<path d="M71.4924 170.14C69.9207 170.14 68.6465 171.27 68.6465 172.664V174.56C68.6465 175.954 69.9207 177.084 71.4924 177.084H91.0484V176.661H90.9676L85.996 176.243L84.9912 172.746C84.9912 172.746 86.9307 170.814 87.0573 170.764C87.1836 170.714 90.9676 170.563 90.9676 170.563L91.0484 170.562V170.14H71.4924Z" fill="#4A6CBD"/>
<path d="M89.7801 173.599C89.7801 171.555 90.9711 170.565 90.9711 170.565H71.8929C70.4492 170.565 69.2788 171.602 69.2788 172.882V174.342C69.2788 175.622 70.4492 176.661 71.8929 176.661H90.9711C90.9711 176.661 89.7801 176.175 89.7801 173.599Z" fill="#F7D99B"/>
<path d="M69.2795 174.396C69.2795 174.395 69.2795 174.395 69.2795 174.395C69.2795 174.395 69.2795 174.395 69.2795 174.396ZM69.2792 174.382C69.2792 174.379 69.2791 174.377 69.2791 174.375C69.2791 174.377 69.2792 174.379 69.2792 174.382ZM69.2791 174.37C69.279 174.366 69.2789 174.362 69.2789 174.357C69.2789 174.362 69.279 174.366 69.2791 174.37ZM69.2789 174.354C69.2788 174.35 69.2788 174.346 69.2788 174.341C69.2788 174.346 69.2788 174.35 69.2789 174.354Z" fill="#4366BA"/>
<path d="M69.355 174.898C69.3101 174.737 69.2841 174.569 69.2795 174.396C69.2795 174.395 69.2795 174.395 69.2795 174.395C69.2794 174.39 69.2794 174.386 69.2792 174.382C69.2792 174.379 69.2791 174.378 69.2791 174.375C69.2791 174.373 69.2791 174.372 69.2791 174.371C69.279 174.366 69.2789 174.362 69.2789 174.358C69.2789 174.356 69.2789 174.356 69.2789 174.355C69.2788 174.351 69.2788 174.346 69.2788 174.342V172.882C69.2788 171.602 70.4492 170.565 71.8929 170.565H90.9711C90.9711 170.565 79.0604 170.714 73.5794 171.724C71.2317 172.157 69.9984 173.501 69.355 174.898Z" fill="#CACB9A"/>
<path d="M88.8095 184.264H90.2287C89.9965 184.088 89.7061 183.982 89.39 183.982H53.8355C51.9751 183.982 50.4673 185.462 50.4673 187.288V189.386C50.4673 191.212 51.9751 192.691 53.8355 192.691L88.9923 192.679L88.8095 184.264Z" fill="#59C69F"/>
<path d="M68.6243 183.991C66.8454 183.991 65.4033 185.406 65.4033 187.151V189.523C65.4033 191.267 66.8454 192.683 68.6243 192.683H90.7579V192.153H90.6665L85.0396 191.629L83.9023 187.252C83.9023 187.252 86.0974 184.833 86.2406 184.77C86.3837 184.709 90.6665 184.52 90.6665 184.52L90.7579 184.518V183.991H68.6243Z" fill="#43927A"/>
<path d="M89.3226 188.321C89.3226 185.762 90.6707 184.521 90.6707 184.521H69.0777C67.4437 184.521 66.1191 185.821 66.1191 187.424V189.249C66.1191 190.853 67.4437 192.153 69.0777 192.153H90.6707C90.6707 192.153 89.3226 191.544 89.3226 188.321Z" fill="#F7D99B"/>
<path d="M66.2055 189.946C66.152 189.734 66.122 189.511 66.1193 189.283C66.1193 189.28 66.1193 189.276 66.1193 189.273V189.272C66.1191 189.269 66.1191 189.266 66.1191 189.263C66.1191 189.262 66.1191 189.26 66.1191 189.26C66.1191 189.256 66.1191 189.253 66.1191 189.249V187.424C66.1191 185.821 67.4437 184.521 69.0777 184.521H90.6707C90.6707 184.521 77.19 184.709 70.9866 185.972C68.3294 186.514 66.9337 188.197 66.2055 189.946Z" fill="#CACB9A"/>
<path d="M49.2957 177.296H47.876C48.1081 177.157 48.3988 177.073 48.7149 177.073H84.2835C86.1445 177.073 87.653 178.248 87.653 179.696V181.361C87.653 182.809 86.1445 183.982 84.2835 183.982L49.1127 183.974L49.2957 177.296Z" fill="#F35F52"/>
<path d="M69.4885 177.079C71.2682 177.079 72.7109 178.202 72.7109 179.586V181.469C72.7109 182.855 71.2682 183.976 69.4885 183.976H47.3462V183.556H47.4376L53.0668 183.141L54.2045 179.667C54.2045 179.667 52.0085 177.747 51.8654 177.699C51.7221 177.649 47.4376 177.499 47.4376 177.499L47.3462 177.498V177.079H69.4885Z" fill="#B14A40"/>
<path d="M48.7826 180.516C48.7826 178.484 47.4341 177.501 47.4341 177.501H69.0353C70.6699 177.501 71.9952 178.531 71.9952 179.804V181.252C71.9952 182.524 70.6699 183.556 69.0353 183.556H47.4341C47.4341 183.556 48.7826 183.073 48.7826 180.516Z" fill="#F7D99B"/>
<path d="M71.9087 181.805C71.1802 180.417 69.784 179.081 67.1259 178.652C60.92 177.649 47.4341 177.501 47.4341 177.501H69.0353C70.6699 177.501 71.9952 178.531 71.9952 179.804V181.252C71.9952 181.255 71.9951 181.258 71.9951 181.261V181.262C71.9951 181.265 71.9951 181.267 71.9951 181.269V181.271C71.9951 181.274 71.9949 181.277 71.9949 181.278C71.9949 181.279 71.9949 181.279 71.9949 181.279C71.9922 181.46 71.9622 181.636 71.9087 181.805Z" fill="#CACB9A"/>
<path d="M165.406 257.481L162.071 256.848L176.48 180.363L179.815 180.996L165.406 257.481Z" fill="#1E4150"/>
<path d="M276.002 257.829H280.012L265.066 180.363L261.731 180.996L276.002 257.829Z" fill="#1E4150"/>
<path d="M202.568 257.829H206.579L191.633 180.363L188.297 180.996L202.568 257.829Z" fill="#1E4150"/>
<path d="M239.457 257.829L236.199 257.867L250.531 180.711L253.865 181.344L239.457 257.829Z" fill="#1E4150"/>
<path d="M224.907 76.034C238.112 77.4494 255.201 78.9432 272.355 108.077C291.105 139.921 281.236 187.486 266.437 200.704C251.639 213.922 203.305 230.241 162.675 205.808C162.675 205.808 138.143 191.002 150.733 166.428C170.108 128.613 167.371 120.726 176.034 105.906C184.696 91.0878 196.878 73.0306 224.907 76.034Z" fill="#F7D99B"/>
<path d="M272.356 108.077C260.647 88.1927 248.97 81.1854 238.537 78.289C242.572 82.4683 246.663 87.845 250.759 94.7996C269.509 126.643 259.638 174.208 244.84 187.426C231.716 199.147 192.22 213.304 155.111 199.32C158.927 203.546 162.675 205.808 162.675 205.808C203.305 230.241 251.639 213.922 266.438 200.704C281.237 187.486 291.106 139.921 272.356 108.077Z" fill="#F3C267"/>
<path d="M182.513 124.434L179.119 134.624L189.463 130.552L182.513 124.434Z" fill="#F68480"/>
<path d="M193.176 94.1109C192.487 94.1394 190.597 94.7695 187.834 99.9779C184.306 106.629 179.148 126.722 179.148 126.722L194.542 132.439L196.519 128.245L199.777 95.9597C199.777 95.9597 193.367 94.1024 193.176 94.1109Z" fill="#14293F"/>
<path d="M213.526 91.2146C209.123 91.2203 198.231 92.5018 193.177 94.1125C193.177 94.1125 189.463 125.948 196.519 150.139C198.1 155.554 195.213 172.587 195.213 172.587L240.828 171.987C240.828 171.987 235.425 130.808 237.46 124.157C239.495 117.506 239.544 94.3263 239.544 94.3263C239.544 94.3263 239.232 94.2779 229.296 92.5645C224.661 91.7663 218.226 91.2089 213.526 91.2146Z" fill="#1B3659"/>
<path d="M218.841 231.675C218.841 231.675 217.831 243.292 215.977 246.51C214.121 249.727 216.074 255.195 216.172 255.946C216.269 256.696 220.077 257.769 226.132 257.125C232.187 256.482 232.089 255.088 231.6 252.836C231.113 250.583 227.89 247.688 227.695 245.545C227.5 243.399 229.551 235.679 229.551 235.679L218.841 231.675Z" fill="#F68D82"/>
<path d="M200.36 162.998C200.36 162.998 168.872 161.255 161.84 165.501C154.81 169.749 163.112 178.471 163.112 178.471C163.112 178.471 188.747 189.587 231.663 192.057C241.826 192.643 242.702 165.628 240.802 163.393C238.901 161.158 200.36 162.998 200.36 162.998Z" fill="#38816A"/>
<path d="M226.888 258.027C233.122 257.364 232.351 254.309 231.848 251.99C231.534 250.539 229.745 248.827 228.679 247.208C228.122 247.651 227.215 248.432 224.508 249.231C221.696 250.059 217.842 248.419 215.386 247.392C214.512 250.642 214.472 254.785 214.553 255.414C214.654 256.187 220.653 258.69 226.888 258.027Z" fill="#375491"/>
<path d="M223.446 185.466C222.188 194.961 215.96 242.228 215.96 242.228L230.412 244.014C230.412 244.014 248.185 182.322 247.273 172.885C246.362 163.449 239.709 162.655 239.709 162.655C239.709 162.655 226.776 160.333 223.446 185.466Z" fill="#43927A"/>
<path d="M209.6 51.0492C209.6 51.0492 214.403 45.9833 218.266 52.1468C218.266 52.1468 221.24 50.4747 223.328 53.4524C223.328 53.4524 228.705 51.8332 230.009 59.8768C230.009 59.8768 232.775 59.3551 233.14 62.6464C233.506 65.9362 231.835 68.13 231.835 68.13C231.835 68.13 233.389 69.2974 232.684 72.3221C232.083 74.895 229.957 75.287 229.957 75.287C229.957 75.287 229.383 79.6217 227.504 80.9288C225.625 82.2344 223.067 81.6073 223.067 81.6073C223.067 81.6073 222.389 83.9578 220.196 83.7483C218.004 83.5401 215.291 81.4505 212.836 82.3913C210.384 83.3306 204.016 82.3385 204.016 82.3385C204.016 82.3385 196.866 79.1527 199.005 71.8389C199.005 71.8389 195.248 68.4436 198.536 64.3697C198.536 64.3697 196.135 57.9967 200.885 54.2364C205.634 50.4747 209.6 51.0492 209.6 51.0492Z" fill="#1B3659"/>
<path d="M210.412 85.4488L209.544 91.9031C209.544 91.9031 207.596 101.201 210.1 102.993C212.606 104.786 220.754 91.638 220.754 91.638L219.894 75.2841L210.412 85.4488Z" fill="#F68D82"/>
<path d="M220.172 80.5838C218.102 86.1614 213.174 89.591 209.676 90.9209L210.412 85.4487L219.894 75.2841L220.172 80.5838Z" fill="#F35F52"/>
<path d="M214.104 58.1035C209.021 56.3516 203.601 59.7313 202.826 64.9754C202.489 67.2561 202.184 70.1226 202.127 73.2557C201.99 80.7947 205.889 88.1299 209.31 88.1299C212.73 88.1299 222.183 83.2507 222.525 72.5501C222.735 65.9433 219.439 59.9408 214.104 58.1035Z" fill="#F68D82"/>
<path d="M220.003 73.3953C220.003 75.0587 221.106 76.4058 222.465 76.4058C223.822 76.4058 224.924 75.0587 224.924 73.3953C224.924 71.7332 223.822 70.3848 222.465 70.3848C221.106 70.3848 220.003 71.7332 220.003 73.3953Z" fill="#F68D82"/>
<path d="M199.287 54.3532C195.755 57.1542 194.516 61.4091 196.521 63.8579C198.528 66.3068 203.018 66.0217 206.55 63.2208C210.084 60.4198 211.321 56.1635 209.316 53.7147C207.311 51.2658 202.82 51.5523 199.287 54.3532Z" fill="#1B3659"/>
<path d="M240.041 97.864C235.776 96.269 233.69 134.596 233.114 150.372C225.561 151.096 212.398 150.378 209.12 150.131C207.578 150.016 204.024 148.717 202.49 148.518C200.919 148.312 199.495 148.205 198.723 148.339C198.44 148.389 190.567 151.599 189.894 152.304C189.059 153.177 186.8 155.38 187.182 156.332C187.562 157.285 191.524 153.678 191.524 153.678L193.46 152.594C191.05 154.943 186.453 158.035 187.115 159.161C187.761 160.26 191.908 157.121 194.863 154.983C192.328 157.267 189.179 161.352 189.905 161.989C190.556 162.562 194.138 157.831 197.967 156.469C199.385 155.964 200.8 157.362 201.916 157.531C202.737 157.655 204.001 157.92 204.806 157.692L208.952 156.52C210.364 156.647 210.399 157.479 211.825 157.783C213.48 158.133 216.196 158.504 218.304 159.017C230.444 161.976 234.493 163.349 238.209 163.348C249.467 163.341 250.121 101.636 240.041 97.864Z" fill="#F68D82"/>
<path d="M248.135 133.847C248.933 117.689 248.816 97.7714 239.735 94.3732C236.151 93.0319 229.834 101.094 230.97 134.175C235.818 134.574 242.937 134.896 248.135 133.847Z" fill="#1B3659"/>
<path d="M197.323 126.904H198.249L212.167 161.016L211.208 160.87L197.323 126.904Z" fill="#F68480"/>
<path d="M176.579 241.612C176.579 241.612 177.839 245.644 175.582 248.311C173.323 250.978 163.94 253.595 162.709 255.039C161.477 256.483 161.569 257.713 161.569 257.713L187.905 256.991L187.619 249.058L186.405 243.358L176.579 241.612Z" fill="#F68D82"/>
<path d="M173.943 249.641C173.943 249.641 180.71 252.371 183.978 250.756C187.247 249.139 187.149 248.69 188.095 249.293C189.04 249.896 189.379 257.333 189.379 257.333L159.766 258.201C157.705 258.154 156.663 256.64 158.338 255.344C159.486 254.455 160.812 253.86 161.567 253.43C163.883 252.104 173.943 249.641 173.943 249.641Z" fill="#375491"/>
<path d="M177.576 170.442C175.541 166.17 170.912 160.608 162.766 163.958C154.998 167.154 152.913 175.006 155.364 183.047C157.815 191.089 173.951 238.36 174.514 244.859L187.397 244.944C187.397 244.944 185.055 207.514 184.481 198.467C183.929 189.762 181.1 177.837 177.576 170.442Z" fill="#43927A"/>
<path d="M156.662 126.904H199.729C200.868 126.904 201.895 127.593 202.326 128.649L215.587 161.016H239.33C239.994 161.016 240.532 161.555 240.532 162.219C240.532 162.882 239.994 163.42 239.33 163.42H171.755C169.898 163.42 168.213 162.329 167.452 160.632L154.099 130.865C153.265 129.007 154.625 126.904 156.662 126.904Z" fill="#F35F52"/>
<path d="M179.848 145.753C180.14 147.206 181.406 148.179 182.679 147.923C183.951 147.67 184.746 146.284 184.456 144.83C184.165 143.376 182.897 142.404 181.625 142.659C180.354 142.913 179.557 144.299 179.848 145.753Z" fill="white"/>
<path d="M302.877 205.467C302.605 203.051 302.281 200.582 301.16 198.427C299.798 195.806 297.407 193.916 295.316 191.833C291.41 187.942 288.405 183.147 286.6 177.931C285.206 173.897 284.511 169.6 282.588 165.791C281.414 163.465 279.814 161.385 278.48 159.147C275.33 153.857 273.613 147.607 269.341 143.179C268.519 148.548 270.144 154.244 273.672 158.363C274.724 159.59 275.945 160.698 276.747 162.103C278.203 164.656 278.07 167.769 278.241 170.704C278.562 176.221 280.114 181.661 282.753 186.511C285.558 191.664 289.604 196.252 291.103 201.925C292.226 206.177 291.892 210.947 294.287 214.631C294.547 215.03 294.844 215.431 294.907 215.904C294.943 216.169 294.901 216.439 294.86 216.702C294.807 217.045 294.753 217.388 294.699 217.73C294.155 221.21 293.591 225.637 296.579 228.241C298.65 230.047 301.315 230.087 302.803 227.69C304.3 225.275 304.168 221.743 304.057 219.026C303.872 214.502 303.387 209.965 302.877 205.467Z" fill="#43927A"/>
<path d="M308.26 202.668C307.098 198.64 305.293 194.802 304.389 190.709C303.513 186.737 303.505 182.632 303.503 178.564C303.5 174.107 303.496 169.65 303.493 165.192C303.491 162.418 303.488 159.627 303.03 156.892C302.044 151.004 298.986 145.559 298.468 139.612C298.244 137.039 298.503 134.439 298.221 131.873C298.06 130.408 297.684 128.911 297.006 127.61C296.277 126.211 294.262 126.273 293.601 127.705C292.115 130.927 291.174 134.408 291.773 137.858C292.134 139.928 293.03 141.858 293.699 143.85C296.677 152.716 295.096 162.531 297.401 171.598C298.096 174.335 299.147 177.019 299.27 179.84C299.563 186.593 294.524 192.761 294.985 199.505C295.364 205.034 299.337 209.61 301.003 214.894C301.937 217.851 302.137 221.009 303.137 223.944C303.913 226.226 305.72 228.995 308.526 228.303C311.19 227.645 310.385 225.47 310.267 223.391C309.864 216.359 310.242 209.537 308.26 202.668Z" fill="#38816A"/>
<path d="M314.357 206.36C314.241 204.266 313.887 202.162 314.179 200.085C314.427 198.332 315.124 196.68 315.622 194.982C316.555 191.799 316.786 188.458 317.012 185.148C317.424 179.131 317.834 173.115 318.244 167.098C318.884 157.744 319.525 148.365 321.272 139.157C321.758 136.6 322.302 133.829 321.154 131.494C320.912 131.002 320.435 130.48 319.914 130.644C319.542 130.761 319.36 131.17 319.224 131.538C315.404 141.927 313.961 153.11 309.697 163.323C308.676 165.771 307.488 168.177 306.959 170.776C306.324 173.897 306.673 177.12 306.756 180.304C306.873 184.87 306.428 189.471 305.169 193.86C304.51 196.157 303.627 198.402 303.266 200.763C302.815 203.71 303.194 206.71 303.476 209.677C304.017 215.38 304.201 221.117 304.025 226.843C303.921 230.21 306.761 230.121 308.642 228.053C309.958 226.606 309.945 225.018 310.396 223.218C311.875 217.307 314.716 212.768 314.357 206.36Z" fill="#43927A"/>
<path d="M296.617 215.488C294.106 211.45 289.104 209.155 287.499 204.676C287.09 203.537 286.93 202.312 286.432 201.208C285.324 198.759 282.804 197.375 280.327 196.249C279.984 196.092 279.592 196.342 279.588 196.721C279.58 197.323 279.864 197.897 280.363 198.233C282.271 199.519 283.721 201.483 284.367 203.699C285.131 206.323 284.8 209.199 285.751 211.762C286.549 213.913 288.192 215.672 288.964 217.833C289.669 219.807 289.595 221.965 289.927 224.038C290.259 226.109 291.179 228.308 293.079 229.185C299.957 232.356 298.238 218.097 296.617 215.488Z" fill="#38816A"/>
<path d="M325.223 214.155C325.116 216.107 325.414 218.154 324.651 219.952C324.162 221.104 323.285 222.034 322.563 223.054C320.032 226.639 319.113 231.716 315.223 233.733C314.967 233.867 314.68 233.987 314.396 233.933C313.997 233.859 313.736 233.474 313.575 233.101C312.622 230.877 313.692 228.372 314.326 226.036C314.437 225.627 314.53 225.172 314.336 224.796C314.121 224.383 313.632 224.203 313.299 223.878C312.635 223.232 312.698 222.162 312.829 221.241C313.159 218.945 313.622 216.667 314.218 214.423C314.554 213.152 314.943 211.869 315.676 210.777C316.481 209.574 317.653 208.676 318.748 207.732C323.592 203.563 327.303 198.081 329.381 192.027C329.829 190.716 330.231 189.332 331.16 188.305C332.088 187.279 333.743 186.752 334.874 187.547C335.679 188.114 332.383 193.421 331.999 194.057C330.901 195.876 330.886 197.458 330.265 199.476C328.744 204.425 325.514 208.854 325.223 214.155Z" fill="#43927A"/>
<path d="M321.389 216.412C322.108 214.55 322.835 212.664 323.071 210.682C323.335 208.477 322.986 206.223 323.362 204.035C323.845 201.223 325.484 198.748 326.294 196.013C326.881 194.037 327.025 191.962 327.377 189.93C328.382 184.123 331.11 178.449 330.328 172.607C330.157 171.337 329.585 169.856 328.324 169.64C327.183 169.443 326.145 170.488 325.849 171.61C325.552 172.731 325.773 173.914 325.854 175.072C326.082 178.3 325.162 181.597 323.296 184.239C321.504 186.777 318.904 188.687 317.291 191.343C315.313 194.602 315.044 198.578 314.035 202.256C312.027 209.568 306.994 215.949 306.075 223.478C305.71 226.474 306.412 230.116 309.176 231.312C317.166 234.774 319.579 221.097 321.389 216.412Z" fill="#38816A"/>
<path d="M307.419 225.694H289.081C287.828 225.694 286.902 226.867 287.193 228.092L293.877 256.302C294.085 257.18 294.867 257.799 295.767 257.799H306.142H307.419H317.796C318.694 257.799 319.476 257.18 319.684 256.302L326.37 228.092C326.659 226.867 325.735 225.694 324.48 225.694H307.419Z" fill="#F35F52"/>
<path d="M123.43 197.283H34.2896V192.676H123.43V197.283Z" fill="#1E4150"/>
<path d="M94.1812 223.435H35.9009V219.404H94.1812V223.435Z" fill="#1E4150"/>
<path d="M114.683 257.82V194.979H110.922V257.82H114.683Z" fill="#1E4150"/>
<path d="M61.5051 257.82V194.979H57.7451V257.82H61.5051Z" fill="#1E4150"/>
<path d="M84.1775 257.82L104.433 195.52L101.113 194.439L80.5059 257.82H84.1775Z" fill="#1E4150"/>
<path d="M27.1988 257.82L44.5235 195.383L41.1593 194.448L23.5752 257.82H27.1988Z" fill="#1E4150"/>
<path d="M300.909 81.1196C289.771 81.1196 280.413 72.4289 279.705 61.1282C278.97 49.3742 287.875 39.2466 299.597 38.5082C300.05 38.4797 300.501 38.4669 300.949 38.4669C312.085 38.4669 321.445 47.1562 322.152 58.4569C322.887 70.2123 313.981 80.3399 302.26 81.0769C301.808 81.1054 301.356 81.1196 300.909 81.1196Z" fill="#C4DAF2"/>
<path d="M285.898 59.3737V59.978H278.059V59.3737H285.898Z" fill="#1E4150"/>
<path d="M323.848 59.3737V59.978H316.008V59.3737H323.848Z" fill="#1E4150"/>
<path d="M301.197 44.8813H300.594V37.0187H301.197V44.8813Z" fill="#1E4150"/>
<path d="M301.197 82.7861H300.594V74.9236H301.197V82.7861Z" fill="#1E4150"/>
<path d="M301.578 59.7927C301.578 60.1533 301.288 60.4441 300.929 60.4441C300.57 60.4441 300.279 60.1533 300.279 59.7927C300.279 59.4334 300.57 59.1427 300.929 59.1427C301.288 59.1427 301.578 59.4334 301.578 59.7927Z" fill="#1E4150"/>
<path d="M300.929 60.0835C300.855 60.0835 300.781 60.0564 300.724 59.9994L289.063 48.3053C288.95 48.1912 288.95 48.0073 289.063 47.8933C289.177 47.7807 289.361 47.7807 289.473 47.8933L301.134 59.5875C301.246 59.7015 301.246 59.8854 301.134 59.9994C301.077 60.0564 301.003 60.0835 300.929 60.0835Z" fill="#1E4150"/>
<path d="M304.678 71.6109C304.629 71.5867 304.591 71.5439 304.572 71.4883L300.803 60.0708C300.766 59.961 300.826 59.8413 300.937 59.8042C301.048 59.7671 301.167 59.827 301.204 59.9382L304.972 71.3558C305.009 71.467 304.95 71.5867 304.839 71.6223C304.783 71.6409 304.726 71.6352 304.678 71.6109Z" fill="#1E4150"/>
<path d="M41.7108 98.604C41.3362 101.559 44.4102 103.902 47.1439 103.718C50.1661 103.513 52.7296 101.033 53.1716 98.0609C53.65 94.8437 51.7185 92.2708 48.7304 92.0356C45.8217 91.8061 43.961 94.3976 44.8012 97.0118C45.4034 98.8862 47.1133 99.5847 47.9745 99.0672C48.6458 98.6653 48.6052 97.6489 47.7925 97.4693C47.4668 97.3966 47.1311 97.5791 46.958 97.8286C46.2466 97.5463 45.5696 96.2492 46.0289 94.8508C46.6159 93.0619 48.8743 92.9607 50.2769 93.7946C52.0623 94.8551 52.3429 97.1401 51.688 98.9618C51.0005 100.873 49.1241 102.38 47.0812 102.525C44.7671 102.689 42.7306 100.915 42.5458 98.6068C42.502 98.0623 41.7778 98.0751 41.7108 98.604Z" fill="#F47374"/>
<path d="M245.176 0.000785828C231.509 -0.0804634 220.39 6.66462 220.34 15.066C220.314 19.2667 223.062 23.0868 227.524 25.8664L221.904 38.2219L233.633 28.6602C237.032 29.7663 240.896 30.4021 244.995 30.4263C258.663 30.5076 269.782 23.7625 269.832 15.3597C269.882 6.95825 258.842 0.0820351 245.176 0.000785828Z" fill="#F7D99B"/>
<path d="M235.708 16.6611C236.922 21.2709 241.639 24.0234 246.244 22.8075C250.85 21.5916 253.599 16.8706 252.386 12.2608C251.171 7.65101 246.453 4.89854 241.848 6.11442C237.244 7.3303 234.493 12.0527 235.708 16.6611Z" fill="#F3C267"/>
<path d="M248.853 14.607C249.501 17.0715 248.031 19.596 245.57 20.2459C243.108 20.8959 240.585 19.4249 239.937 16.9604L248.853 14.607Z" fill="#EBEBE9"/>
<path d="M104.106 119.29L141.839 119.006C142.7 118.999 143.393 118.295 143.387 117.432L143.198 92.1866C143.19 91.3243 142.487 90.6301 141.625 90.6372L103.893 90.9209C103.031 90.9266 102.338 91.6307 102.344 92.4931L102.534 117.74C102.54 118.602 103.244 119.295 104.106 119.29Z" fill="#F35F52"/>
<path d="M142.041 104.681L154.223 117.104L139.194 114.298L142.041 104.681Z" fill="#F35F52"/>
<path d="M131.05 102.929L127.382 102.863C127.382 102.863 122.763 99.4108 122.621 98.1907C122.48 96.9705 123.237 94.3877 122.521 94.0627C121.805 93.7391 120.286 93.4825 119.328 95.0989C118.631 96.2721 119.211 100.553 118.781 100.839C118.51 101.019 116.402 101.04 114.863 101.032C113.849 101.026 112.918 101.583 112.443 102.478L112.442 102.481C112.121 103.087 112.267 103.834 112.792 104.273L113.61 104.957L112.966 105.814C112.487 106.451 112.612 107.355 113.245 107.839L113.891 108.331L113.449 108.836C112.88 109.484 113 110.485 113.706 110.98L114.28 111.383L114.195 111.541C113.836 112.203 114.042 113.028 114.667 113.443L115.244 113.825L125.009 113.997C125.924 114.014 126.832 113.843 127.678 113.495L131.124 112.988C131.494 112.934 131.768 112.616 131.769 112.241L131.792 103.687C131.792 103.274 131.461 102.937 131.05 102.929Z" fill="white"/>
<path d="M341.699 105.425L343.396 102.654L340.697 101.557L339 104.328L341.699 105.425ZM334.821 107.896L336.719 104.81L335.195 104.192C334.862 104.056 334.701 103.676 334.836 103.342C334.972 103.008 335.352 102.847 335.685 102.983L337.443 103.697L339.139 100.926L337.511 100.265C337.178 100.129 337.017 99.75 337.152 99.415C337.288 99.0814 337.668 98.9204 338.001 99.0558L339.863 99.8112L341.834 96.6383C342.001 96.3689 342.338 96.2591 342.632 96.3788L342.916 96.4943C343.29 96.6454 343.438 97.0958 343.227 97.4394L341.394 100.433L344.093 101.529L346.064 98.3559C346.231 98.0865 346.568 97.9767 346.862 98.0951L347.172 98.2219C347.545 98.373 347.694 98.8234 347.483 99.167L345.651 102.16L347.175 102.779C347.508 102.914 347.669 103.295 347.534 103.629C347.399 103.962 347.018 104.123 346.685 103.988L344.928 103.275L343.257 106.056L344.885 106.716C345.218 106.851 345.379 107.232 345.244 107.566C345.108 107.901 344.728 108.06 344.395 107.925L342.533 107.169L340.519 110.442C340.353 110.713 340.015 110.824 339.72 110.704L339.387 110.569C339.014 110.418 338.866 109.966 339.078 109.622L340.975 106.538L338.276 105.443L336.264 108.714C336.097 108.985 335.758 109.096 335.463 108.977L335.131 108.843C334.758 108.69 334.61 108.24 334.821 107.896Z" fill="#1B3659"/>
<path d="M168.308 23.972L170.248 19.5888L167.74 15.5036C167.455 15.0389 167.827 14.4473 168.369 14.5029L173.134 14.9961L176.242 11.3456C176.595 10.9308 177.271 11.1019 177.387 11.635L178.391 16.3232L182.819 18.1534C183.323 18.3615 183.37 19.0572 182.897 19.3323L178.754 21.7369L178.384 26.5164C178.341 27.0609 177.693 27.3203 177.287 26.9554L173.721 23.7539L169.065 24.88C168.533 25.0068 168.087 24.4709 168.308 23.972Z" fill="#F47374"/>
<path d="M308.891 23.9677L310.347 20.6793L308.465 17.6147C308.25 17.2669 308.529 16.8235 308.937 16.8649L312.512 17.2341L314.842 14.4973C315.107 14.1851 315.615 14.3134 315.701 14.7139L316.454 18.2304L319.776 19.6031C320.154 19.7585 320.189 20.2816 319.835 20.4869L316.726 22.29L316.448 25.8764C316.417 26.2855 315.931 26.4793 315.627 26.2056L312.952 23.8052L309.458 24.6476C309.061 24.7446 308.724 24.3426 308.891 23.9677Z" fill="#F3C267"/>
<path d="M294.441 117.913L294.21 115.189L291.837 113.836C291.568 113.681 291.591 113.284 291.879 113.163L294.395 112.101L294.948 109.424C295.012 109.121 295.397 109.019 295.6 109.256L297.386 111.323L300.101 111.024C300.41 110.988 300.624 111.324 300.463 111.591L299.05 113.93L300.175 116.422C300.303 116.705 300.05 117.012 299.748 116.942L297.087 116.319L295.068 118.159C294.838 118.369 294.468 118.223 294.441 117.913Z" fill="#F47374"/>
<path d="M76.7082 77.8685L77.7758 75.4581L76.3962 73.2102C76.2391 72.955 76.4433 72.63 76.7418 72.6614L79.3631 72.9322L81.0723 70.9238C81.2669 70.6958 81.6391 70.7898 81.702 71.0835L82.2546 73.662L84.6905 74.6684C84.9678 74.7824 84.9935 75.1659 84.7339 75.317L82.454 76.6397L82.2505 79.2682C82.2273 79.569 81.8711 79.7115 81.6476 79.5105L79.686 77.7501L77.1243 78.3688C76.8326 78.4386 76.5867 78.1436 76.7082 77.8685Z" fill="#F3C267"/>
<path d="M159.333 73.5051L160.399 71.0947L159.021 68.8483C158.863 68.5917 159.068 68.2667 159.365 68.2966L161.987 68.5675L163.697 66.5605C163.89 66.3324 164.264 66.4265 164.326 66.7201L164.879 69.2987L167.314 70.305C167.592 70.4191 167.618 70.8025 167.357 70.9536L165.078 72.2764L164.875 74.9063C164.852 75.2056 164.494 75.3482 164.272 75.1472L162.309 73.3854L159.748 74.0054C159.456 74.0753 159.21 73.7802 159.333 73.5051Z" fill="#59C69F"/>
<path d="M118.196 34.4445L122.426 33.8302L124.165 40.5325L130.46 40.3985L132.581 45.2021L135.011 44.1274L132.174 37.703L126.207 37.8313L124.398 30.8582L118.033 31.7818L118.196 34.4445Z" fill="#59C69F"/>
<path d="M109.125 146.719L112.326 143.884L117.453 148.535L122.643 144.967L127.049 147.821L128.492 145.589L122.601 141.773L117.681 145.154L112.347 140.315L107.53 144.581L109.125 146.719Z" fill="#1B3659"/>
<path d="M68.5805 146.728L70.9821 142.806L67.162 141.255L64.7603 145.177L68.5805 146.728ZM58.8461 150.225L61.5325 145.859L59.3753 144.983C58.9033 144.792 58.6758 144.253 58.8672 143.781C59.0586 143.308 59.5966 143.081 60.0686 143.272L62.5565 144.281L64.958 140.36L62.6539 139.425C62.1819 139.234 61.9544 138.695 62.1457 138.223C62.3373 137.75 62.8751 137.524 63.3473 137.715L65.9819 138.784L68.7712 134.294C69.0082 133.912 69.4852 133.756 69.9011 133.926L70.3033 134.088C70.8313 134.304 71.041 134.941 70.7433 135.427L68.149 139.663L71.9692 141.214L74.7584 136.724C74.9954 136.342 75.4724 136.187 75.8883 136.355L76.3274 136.533C76.8553 136.748 77.0649 137.385 76.7673 137.871L74.173 142.109L76.3303 142.984C76.8024 143.175 77.0299 143.714 76.8385 144.186C76.6471 144.659 76.1091 144.886 75.6371 144.695L73.1492 143.686L70.7843 147.621L73.0884 148.556C73.5606 148.749 73.788 149.286 73.5966 149.759C73.4052 150.231 72.8672 150.459 72.3952 150.267L69.7605 149.198L66.9114 153.829C66.6753 154.212 66.1967 154.369 65.7794 154.201L65.309 154.01C64.7804 153.795 64.571 153.156 64.8701 152.67L67.5565 148.304L63.7364 146.753L60.8875 151.384C60.6513 151.768 60.1727 151.925 59.7554 151.755L59.285 151.565C58.7564 151.35 58.5472 150.712 58.8461 150.225Z" fill="#59C69F"/>
<path d="M302.261 81.077C290.54 81.8154 280.442 72.8837 279.705 61.1297C278.97 49.3743 287.875 39.2467 299.597 38.5083C311.318 37.7714 321.416 46.7031 322.153 58.457C322.888 70.2125 313.981 80.3401 302.261 81.077ZM300.929 34.8864C287.213 34.8864 276.093 46.0374 276.093 59.7927C276.093 73.5479 287.213 84.699 300.929 84.699C314.645 84.699 325.765 73.5479 325.765 59.7927C325.765 46.0374 314.645 34.8864 300.929 34.8864Z" fill="#1E4150"/>
<path d="M409.437 257.435H0V260.215H409.437V257.435Z" fill="#14293F"/>
<path d="M206.21 79.7643L212.832 79.656C212.832 79.656 212.721 82.1747 209.81 82.3058C206.262 82.4669 206.21 79.7643 206.21 79.7643Z" fill="white"/>
</svg>
