<svg width="18" height="18" viewBox="0 0 18 18" fill="none" xmlns="http://www.w3.org/2000/svg">
<path d="M3.91797 17.75H0.289062V6.06641H3.91797V17.75ZM2.10156 4.47266C0.941405 4.47266 0 3.51172 0 2.35156C0 1.19141 0.941405 0.25 2.10156 0.25C3.26172 0.25 4.20312 1.19141 4.20312 2.35156C4.20312 3.51172 3.26172 4.47266 2.10156 4.47266ZM17.5 17.75H13.8789V12.0625C13.8789 10.707 13.8515 8.96875 11.9922 8.96875C10.1055 8.96875 9.8164 10.4414 9.8164 11.9648V17.75H6.1914V6.06641H9.67187V7.66016H9.72265C10.207 6.74219 11.3906 5.77344 13.1562 5.77344C16.8281 5.77344 17.5039 8.19141 17.5039 11.332V17.75H17.5Z" fill="white" fill-opacity="0.7"/>
</svg>
