<svg width="50" height="50" viewBox="0 0 50 50" fill="none" xmlns="http://www.w3.org/2000/svg">
<path d="M0 25C0 38.8071 11.1929 50 25 50L28.2854 25L25 0C11.1929 0 0 11.1929 0 25Z" fill="#FFD93B"/>
<path d="M25 0V50C38.8071 50 50 38.8071 50 25C50 11.1929 38.8071 0 25 0Z" fill="#FFD93B"/>
<path d="M17.0947 22.6909H20.0244V25.6208H17.0947V22.6909Z" fill="#3E4347"/>
<path d="M30.0195 19.5662H32.9492V25.6207H30.0195V19.5662Z" fill="#3E4347"/>
<path d="M12.0645 20.4687L10.5132 17.9834L14.5145 15.4858L19.7171 16.9886L21.9682 15.5478L23.5476 18.0152L20.1789 20.1715L14.9571 18.6631L12.0645 20.4687Z" fill="#FFB64C"/>
<path d="M29.1625 15.1564L28.0688 12.4385L32.0806 10.8241C33.9903 10.0557 36.173 10.2476 37.9192 11.3376L40.0282 12.6539L38.477 15.1392L36.368 13.8229C35.4128 13.2267 34.2189 13.1216 33.1742 13.542L29.1625 15.1564Z" fill="#FFB64C"/>
<path d="M13.7759 31.6157V34.5454H25.0001L27.2235 33.1456L25.0001 31.6157H13.7759Z" fill="#FFB64C"/>
<path d="M25 31.6157H36.2242V34.5454H25V31.6157Z" fill="#FFB64C"/>
</svg>
