<svg width="53" height="87" viewBox="0 0 53 87" fill="none" xmlns="http://www.w3.org/2000/svg">
<path d="M8.75391 81L4.39453 69.6094H4.32422C4.40625 70.5117 4.44727 71.584 4.44727 72.8262V81H3.06738V68.1504H5.31738L9.38672 78.75H9.45703L13.5615 68.1504H15.7939V81H14.2998V72.7207C14.2998 71.7715 14.3408 70.7402 14.4229 69.627H14.3525L9.95801 81H8.75391ZM20.5664 81H19.1074V71.3672H20.5664V81ZM18.9844 68.7568C18.9844 68.4229 19.0664 68.1797 19.2305 68.0273C19.3945 67.8691 19.5996 67.79 19.8457 67.79C20.0801 67.79 20.2822 67.8691 20.4521 68.0273C20.6221 68.1855 20.707 68.4287 20.707 68.7568C20.707 69.085 20.6221 69.3311 20.4521 69.4951C20.2822 69.6533 20.0801 69.7324 19.8457 69.7324C19.5996 69.7324 19.3945 69.6533 19.2305 69.4951C19.0664 69.3311 18.9844 69.085 18.9844 68.7568ZM25.9805 76.0693L22.6318 71.3672H24.293L26.833 75.0586L29.3643 71.3672H31.0078L27.6592 76.0693L31.1836 81H29.5312L26.833 77.0977L24.1084 81H22.4561L25.9805 76.0693ZM37.1689 81.1758C35.7451 81.1758 34.6201 80.7422 33.7939 79.875C32.9736 79.0078 32.5635 77.8037 32.5635 76.2627C32.5635 74.71 32.9443 73.4766 33.7061 72.5625C34.4736 71.6484 35.502 71.1914 36.791 71.1914C37.998 71.1914 38.9531 71.5898 39.6562 72.3867C40.3594 73.1777 40.7109 74.2236 40.7109 75.5244V76.4473H34.0752C34.1045 77.5781 34.3887 78.4365 34.9277 79.0225C35.4727 79.6084 36.2373 79.9014 37.2217 79.9014C38.2588 79.9014 39.2842 79.6846 40.2979 79.251V80.5518C39.7822 80.7744 39.293 80.9326 38.8301 81.0264C38.373 81.126 37.8193 81.1758 37.1689 81.1758ZM36.7734 72.4131C36 72.4131 35.3818 72.665 34.9189 73.1689C34.4619 73.6729 34.1924 74.3701 34.1104 75.2607H39.1465C39.1465 74.3408 38.9414 73.6377 38.5312 73.1514C38.1211 72.6592 37.5352 72.4131 36.7734 72.4131ZM49.7637 79.708H49.6846C49.0107 80.6865 48.0029 81.1758 46.6611 81.1758C45.4014 81.1758 44.4199 80.7451 43.7168 79.8838C43.0195 79.0225 42.6709 77.7979 42.6709 76.21C42.6709 74.6221 43.0225 73.3887 43.7256 72.5098C44.4287 71.6309 45.4072 71.1914 46.6611 71.1914C47.9678 71.1914 48.9697 71.666 49.667 72.6152H49.7812L49.7197 71.9209L49.6846 71.2441V67.3242H51.1436V81H49.957L49.7637 79.708ZM46.8457 79.9541C47.8418 79.9541 48.5625 79.6846 49.0078 79.1455C49.459 78.6006 49.6846 77.7246 49.6846 76.5176V76.21C49.6846 74.8447 49.4561 73.8721 48.999 73.292C48.5479 72.7061 47.8242 72.4131 46.8281 72.4131C45.9727 72.4131 45.3164 72.7471 44.8594 73.415C44.4082 74.0771 44.1826 75.0146 44.1826 76.2275C44.1826 77.458 44.4082 78.3867 44.8594 79.0137C45.3105 79.6406 45.9727 79.9541 46.8457 79.9541Z" fill="white" fill-opacity="0.7"/>
<path d="M25 50C18.3223 50 12.0442 47.3995 7.32227 42.6777C2.60049 37.9558 0 31.6777 0 25C0 18.3223 2.60049 12.0442 7.32227 7.32227C12.0442 2.60049 18.3223 0 25 0C31.6777 0 37.9558 2.60049 42.6777 7.32227C47.3995 12.0442 50 18.3223 50 25C50 31.6777 47.3995 37.9558 42.6777 42.6777C37.9558 47.3995 31.6777 50 25 50ZM25 2.92969C19.1048 2.92969 13.5625 5.22539 9.39395 9.39395C5.22539 13.5625 2.92969 19.1048 2.92969 25C2.92969 30.8952 5.22539 36.4375 9.39395 40.6061C13.5625 44.7746 19.1048 47.0703 25 47.0703C30.8952 47.0703 36.4375 44.7746 40.6061 40.6061C44.7746 36.4375 47.0703 30.8952 47.0703 25C47.0703 19.1048 44.7746 13.5625 40.6061 9.39395C36.4375 5.22539 30.8952 2.92969 25 2.92969Z" fill="white"/>
<path d="M17.0947 22.6909H20.0244V25.6208H17.0947V22.6909Z" fill="white"/>
<path d="M30.0195 19.5664H32.9492V25.6209H30.0195V19.5664Z" fill="white"/>
<path d="M12.0645 20.4687L10.5132 17.9834L14.5145 15.4858L19.7171 16.9886L21.9682 15.5478L23.5476 18.0152L20.1789 20.1715L14.9571 18.6631L12.0645 20.4687Z" fill="white"/>
<path d="M29.1625 15.1564L28.0688 12.4385L32.0806 10.8241C33.9903 10.0557 36.173 10.2476 37.9192 11.3376L40.0282 12.6539L38.477 15.1392L36.368 13.8229C35.4128 13.2267 34.2189 13.1216 33.1742 13.542L29.1625 15.1564Z" fill="white"/>
<path d="M13.7759 31.6157H36.2242V34.5454H13.7759V31.6157Z" fill="white"/>
</svg>
