<svg width="54" height="87" viewBox="0 0 54 87" fill="none" xmlns="http://www.w3.org/2000/svg">
<path d="M7.68164 81L3.95508 70.2686H3.88477C3.98438 71.8623 4.03418 73.3564 4.03418 74.751V81H2.12695V68.1504H5.08887L8.65723 78.3721H8.70996L12.3838 68.1504H15.3545V81H13.333V74.6455C13.333 74.0068 13.3477 73.1748 13.377 72.1494C13.4121 71.124 13.4414 70.5029 13.4648 70.2861H13.3945L9.53613 81H7.68164ZM20.584 81H18.5186V71.2793H20.584V81ZM18.3955 68.7041C18.3955 68.335 18.4951 68.0508 18.6943 67.8516C18.8994 67.6523 19.1895 67.5527 19.5645 67.5527C19.9277 67.5527 20.209 67.6523 20.4082 67.8516C20.6133 68.0508 20.7158 68.335 20.7158 68.7041C20.7158 69.0557 20.6133 69.334 20.4082 69.5391C20.209 69.7383 19.9277 69.8379 19.5645 69.8379C19.1895 69.8379 18.8994 69.7383 18.6943 69.5391C18.4951 69.334 18.3955 69.0557 18.3955 68.7041ZM25.708 76.0342L22.4473 71.2793H24.8027L27.0176 74.6807L29.25 71.2793H31.5879L28.3184 76.0342L31.7549 81H29.417L27.0176 77.3613L24.627 81H22.2891L25.708 76.0342ZM37.7051 81.1758C36.1934 81.1758 35.0098 80.7363 34.1543 79.8574C33.3047 78.9727 32.8799 77.7568 32.8799 76.21C32.8799 74.6221 33.2754 73.374 34.0664 72.4658C34.8574 71.5576 35.9443 71.1035 37.3271 71.1035C38.6104 71.1035 39.624 71.4932 40.3682 72.2725C41.1123 73.0518 41.4844 74.124 41.4844 75.4893V76.6055H35.0068C35.0361 77.5488 35.291 78.2754 35.7715 78.7852C36.252 79.2891 36.9287 79.541 37.8018 79.541C38.376 79.541 38.9092 79.4883 39.4014 79.3828C39.8994 79.2715 40.4326 79.0898 41.001 78.8379V80.5166C40.4971 80.7568 39.9873 80.9268 39.4717 81.0264C38.9561 81.126 38.3672 81.1758 37.7051 81.1758ZM37.3271 72.668C36.6709 72.668 36.1436 72.876 35.7451 73.292C35.3525 73.708 35.1182 74.3145 35.042 75.1113H39.4541C39.4424 74.3086 39.249 73.7021 38.874 73.292C38.499 72.876 37.9834 72.668 37.3271 72.668ZM47.1094 81.1758C45.8965 81.1758 44.9502 80.7363 44.2705 79.8574C43.5908 78.9785 43.251 77.7451 43.251 76.1572C43.251 74.5635 43.5938 73.3242 44.2793 72.4395C44.9707 71.5488 45.9258 71.1035 47.1445 71.1035C48.4219 71.1035 49.3945 71.5752 50.0625 72.5186H50.168C50.0684 71.8213 50.0186 71.2705 50.0186 70.8662V67.3242H52.0928V81H50.4756L50.1152 79.7256H50.0186C49.3564 80.6924 48.3867 81.1758 47.1094 81.1758ZM47.6631 79.5059C48.5127 79.5059 49.1309 79.2686 49.5176 78.7939C49.9043 78.3135 50.1035 77.5371 50.1152 76.4648V76.1748C50.1152 74.9502 49.916 74.0801 49.5176 73.5645C49.1191 73.0488 48.4951 72.791 47.6455 72.791C46.9189 72.791 46.3594 73.0869 45.9668 73.6787C45.5742 74.2646 45.3779 75.1025 45.3779 76.1924C45.3779 77.2705 45.5684 78.0938 45.9492 78.6621C46.3301 79.2246 46.9014 79.5059 47.6631 79.5059Z" fill="white"/>
<path d="M2 25C2 38.8071 13.1929 50 27 50L30.2854 25L27 0C13.1929 0 2 11.1929 2 25Z" fill="#FFD93B"/>
<path d="M27 0V50C40.8071 50 52 38.8071 52 25C52 11.1929 40.8071 0 27 0Z" fill="#FFD93B"/>
<path d="M19.0947 22.6909H22.0244V25.6208H19.0947V22.6909Z" fill="#3E4347"/>
<path d="M32.0195 19.5662H34.9492V25.6207H32.0195V19.5662Z" fill="#3E4347"/>
<path d="M14.0645 20.4687L12.5132 17.9834L16.5145 15.4858L21.7171 16.9886L23.9682 15.5478L25.5476 18.0152L22.1789 20.1715L16.9571 18.6631L14.0645 20.4687Z" fill="#FFB64C"/>
<path d="M31.1625 15.1564L30.0688 12.4385L34.0806 10.8241C35.9903 10.0557 38.173 10.2476 39.9192 11.3376L42.0282 12.6539L40.477 15.1392L38.368 13.8229C37.4128 13.2267 36.2189 13.1216 35.1742 13.542L31.1625 15.1564Z" fill="#FFB64C"/>
<path d="M15.7759 31.6157V34.5454H27.0001L29.2235 33.1456L27.0001 31.6157H15.7759Z" fill="#FFB64C"/>
<path d="M27 31.6157H38.2242V34.5454H27V31.6157Z" fill="#FFB64C"/>
</svg>
