<svg width="22" height="16" viewBox="0 0 22 16" fill="none" xmlns="http://www.w3.org/2000/svg">
<path d="M21.4711 2.84699C21.2258 1.92316 20.5029 1.19559 19.585 0.948672C17.9213 0.5 11.2502 0.5 11.2502 0.5C11.2502 0.5 4.57909 0.5 2.91537 0.948672C1.99752 1.19563 1.27463 1.92316 1.02928 2.84699C0.583496 4.52148 0.583496 8.01516 0.583496 8.01516C0.583496 8.01516 0.583496 11.5088 1.02928 13.1833C1.27463 14.1071 1.99752 14.8044 2.91537 15.0513C4.57909 15.5 11.2502 15.5 11.2502 15.5C11.2502 15.5 17.9213 15.5 19.585 15.0513C20.5029 14.8044 21.2258 14.1071 21.4711 13.1833C21.9169 11.5088 21.9169 8.01516 21.9169 8.01516C21.9169 8.01516 21.9169 4.52148 21.4711 2.84699ZM9.06835 11.1871V4.84316L14.6441 8.01523L9.06835 11.1871Z" fill="white" fill-opacity="0.7"/>
</svg>
