<svg width="100" height="15" viewBox="0 0 100 15" fill="none" xmlns="http://www.w3.org/2000/svg">
<path d="M64.3385 14.7614H61.2926H60.9107V3.42787H52.2412V0.00463867H73.0079V3.42787H64.3385V14.7614Z" fill="white"/>
<path d="M40.6577 0.131836V14.7613H44.0809V0.131836H40.6577Z" fill="#DB956E"/>
<path d="M29.0513 0.131836V14.7613H32.4745V0.131836H29.0513Z" fill="#DB956E"/>
<path d="M0.974363 14.7613H3.40199H3.40654L3.47473 3.42778H8.82098V14.7204H12.2442V3.42778H17.4768L17.5314 14.7613H19.9454C21.2819 9.71962 20.9319 5.14622 20.9137 0L0.0469524 0.131838C0.0469524 5.40534 -0.289461 9.63324 0.974363 14.7613Z" fill="white"/>
<path fill-rule="evenodd" clip-rule="evenodd" d="M84.5548 5.76903H96.5429V3.42778H84.5548V5.76903ZM96.5384 0H99.9616C99.9616 4.96892 100.239 9.90601 98.9524 14.7613H96.5384V9.19681H84.5502V14.7613H82.1226C80.8452 9.5696 81.127 5.27351 81.127 0H81.5543H84.5502H96.5384Z" fill="white"/>
</svg>
